<svg width="129" height="129" viewBox="0 0 129 129" fill="none" xmlns="http://www.w3.org/2000/svg">
<path fill-rule="evenodd" clip-rule="evenodd" d="M105.826 3.49217C105.63 2.70002 105.226 1.97428 104.657 1.38922C104.088 0.804166 103.374 0.380782 102.587 0.162387C101.801 -0.0560075 100.971 -0.0615729 100.181 0.14626C99.3921 0.354094 98.6722 0.767865 98.0953 1.34524L79.6667 19.7738C79.1047 20.337 78.6982 21.0362 78.4866 21.8032C78.2751 22.5702 78.2658 23.3789 78.4597 24.1506L81.7768 37.456C81.7332 37.4984 81.6902 37.5414 81.6478 37.585L59.6165 59.6164C58.3957 60.9264 57.7312 62.6591 57.7628 64.4495C57.7944 66.2398 58.5196 67.948 59.7858 69.2142C61.052 70.4804 62.7602 71.2056 64.5505 71.2372C66.3408 71.2688 68.0736 70.6042 69.3836 69.3835L91.4334 47.3614C91.477 47.3159 91.52 47.2698 91.5624 47.2232L104.859 50.5495C105.63 50.7434 106.439 50.7341 107.206 50.5226C107.973 50.311 108.672 49.9045 109.235 49.3425L127.664 30.9139C128.244 30.3373 128.66 29.6167 128.869 28.8262C129.078 28.0357 129.073 27.2038 128.855 26.4159C128.636 25.6279 128.212 24.9123 127.625 24.3426C127.039 23.7728 126.311 23.3695 125.517 23.1739L109.77 19.2486L105.826 3.49217ZM67.421 6.9936C67.5475 8.82143 66.9431 10.6247 65.7405 12.007C64.5379 13.3893 62.8356 14.2375 61.0078 14.365C51.3807 15.0322 42.1475 18.4491 34.4053 24.2097C26.6631 29.9703 20.7373 37.8324 17.3322 46.8619C13.9271 55.8914 13.1857 65.7086 15.1962 75.1471C17.2067 84.5855 21.8845 93.2484 28.6738 100.106C35.463 106.964 44.0784 111.729 53.4961 113.835C62.9139 115.94 72.7381 115.297 81.8014 111.983C90.8647 108.669 98.7861 102.823 104.624 95.1393C110.463 87.4554 113.972 78.2571 114.736 68.6372C114.882 66.8092 115.747 65.1139 117.143 63.9242C118.538 62.7344 120.349 62.1477 122.177 62.2931C124.005 62.4385 125.7 63.3041 126.89 64.6995C128.08 66.0949 128.666 67.9057 128.521 69.7337C127.546 81.9907 123.073 93.7102 115.633 103.5C108.193 113.289 98.0997 120.738 86.5515 124.959C75.0034 129.181 62.4859 129.999 50.4865 127.317C38.487 124.634 27.5099 118.563 18.8592 109.825C10.2086 101.087 4.24809 90.0493 1.68588 78.0235C-0.876325 65.9977 0.067458 53.4891 4.4051 41.9839C8.74275 30.4787 16.2919 20.4604 26.1557 13.1194C36.0195 5.77842 47.7833 1.42322 60.0495 0.571243C61.8774 0.444651 63.6807 1.0491 65.063 2.2517C66.4453 3.4543 67.2934 5.16583 67.421 6.9936ZM61.229 37.3915C61.5601 38.2367 61.7214 39.1389 61.7038 40.0464C61.6862 40.954 61.49 41.8492 61.1263 42.6809C60.7626 43.5126 60.2387 44.2646 59.5844 44.8937C58.9301 45.5229 58.1582 46.017 57.3129 46.3478C54.291 47.5332 51.6121 49.4529 49.5184 51.9335C47.4247 54.4141 45.9822 57.3773 45.3212 60.5553C44.6602 63.7334 44.8016 67.026 45.7326 70.1357C46.6636 73.2454 48.3549 76.0741 50.6535 78.366C52.9521 80.658 55.7857 82.341 58.8981 83.2629C62.0105 84.1849 65.3036 84.3167 68.4797 83.6464C71.6558 82.9762 74.6148 81.525 77.0892 79.4241C79.5637 77.3232 81.4756 74.6387 82.6522 71.6134C82.9813 70.7676 83.4738 69.9949 84.1016 69.3394C84.7293 68.6839 85.48 68.1585 86.3108 67.7931C87.1417 67.4278 88.0363 67.2297 88.9437 67.21C89.8511 67.1904 90.7534 67.3498 91.5992 67.6789C92.4451 68.008 93.2178 68.5005 93.8732 69.1283C94.5287 69.756 95.0541 70.5067 95.4195 71.3376C95.7848 72.1684 95.983 73.063 96.0026 73.9704C96.0222 74.8778 95.8629 75.7801 95.5337 76.626C93.5241 81.7922 90.2586 86.3762 86.0324 89.9635C81.8063 93.5508 76.7527 96.0282 71.3285 97.1718C65.9044 98.3154 60.2808 98.0892 54.9661 96.5135C49.6513 94.9379 44.8131 92.0625 40.8887 88.1474C36.9644 84.2322 34.0776 79.4007 32.4895 74.0897C30.9014 68.7787 30.662 63.1556 31.7929 57.7288C32.9238 52.302 35.3893 47.2426 38.9667 43.008C42.544 38.7734 47.1203 35.4972 52.2819 33.4755C53.9877 32.8096 55.8881 32.848 57.5657 33.5823C59.2432 34.3165 60.5608 35.6866 61.229 37.3915Z" fill="#F97E15"/>
</svg>
