<svg width="129" height="125" viewBox="0 0 129 125" fill="none" xmlns="http://www.w3.org/2000/svg">
<path d="M125.748 56.9536L99.8182 79.3285L107.718 112.79C108.154 114.607 108.042 116.511 107.396 118.264C106.75 120.017 105.598 121.539 104.088 122.638C102.577 123.736 100.775 124.363 98.908 124.438C97.0414 124.513 95.1946 124.033 93.6007 123.058L64.5012 105.149L35.3844 123.058C33.7907 124.027 31.946 124.502 30.0827 124.425C28.2194 124.347 26.4207 123.72 24.9132 122.622C23.4056 121.524 22.2566 120.005 21.6108 118.255C20.965 116.506 20.8513 114.604 21.2841 112.79L29.213 79.3285L3.2827 56.9536C1.87266 55.7349 0.85289 54.1278 0.350751 52.3331C-0.151388 50.5383 -0.113644 48.6354 0.459269 46.8619C1.03218 45.0885 2.11487 43.5231 3.57213 42.3613C5.02939 41.1995 6.79663 40.4928 8.65314 40.3294L42.6506 37.5865L55.7655 5.84791C56.4754 4.11818 57.6836 2.6386 59.2366 1.5973C60.7895 0.555996 62.617 0 64.4867 0C66.3565 0 68.184 0.555996 69.7369 1.5973C71.2899 2.6386 72.4981 4.11818 73.208 5.84791L86.3171 37.5865L120.315 40.3294C122.175 40.4867 123.947 41.1895 125.41 42.3497C126.872 43.5099 127.96 45.0759 128.536 46.8515C129.113 48.6271 129.153 50.5333 128.651 52.3313C128.148 54.1294 127.127 55.7393 125.714 56.9593L125.748 56.9536Z" fill="#F97E15"/>
</svg>
