<svg width="155" height="115" viewBox="0 0 155 115" fill="none" xmlns="http://www.w3.org/2000/svg">
<path d="M77.5001 0.5C98.9832 0.5 118.069 9.45613 131.659 20.5426C138.481 26.1073 144.1 32.3559 148.062 38.576C151.955 44.6821 154.583 51.3013 154.583 57.5C154.583 63.6988 151.963 70.3179 148.062 76.424C144.1 82.6441 138.481 88.8928 131.659 94.4574C118.069 105.544 98.9755 114.5 77.5001 114.5C56.017 114.5 36.9311 105.544 23.3413 94.4574C16.5195 88.8928 10.9001 82.6441 6.938 76.424C3.03758 70.3179 0.416748 63.6988 0.416748 57.5C0.416748 51.3013 3.03758 44.6821 6.938 38.576C10.9001 32.3559 16.5195 26.1073 23.3413 20.5426C36.9311 9.45613 56.0247 0.5 77.5001 0.5ZM77.5001 14.75C60.6651 14.75 45.0634 21.8251 33.5472 31.223C27.8122 35.897 23.2797 41.0056 20.2195 45.8079C17.0899 50.7241 15.8334 54.7925 15.8334 57.5C15.8334 60.2075 17.0899 64.2759 20.2195 69.1921C23.2797 73.9944 27.8122 79.0959 33.5472 83.777C45.0634 93.1749 60.6651 100.25 77.5001 100.25C94.3351 100.25 109.937 93.1749 121.453 83.777C127.188 79.0959 131.72 73.9944 134.781 69.1921C137.91 64.2759 139.167 60.2075 139.167 57.5C139.167 54.7925 137.91 50.7241 134.781 45.8079C131.72 41.0056 127.188 35.9041 121.453 31.223C109.937 21.8251 94.3351 14.75 77.5001 14.75ZM77.5001 36.125C78.1784 36.125 78.849 36.1535 79.5119 36.2034C77.8384 38.917 77.1757 42.0637 77.626 45.1594C78.0763 48.2551 79.6145 51.1283 82.004 53.3369C84.3935 55.5456 87.5019 56.9674 90.8511 57.3836C94.2002 57.7998 97.6045 57.1873 100.54 55.6404C100.946 59.9308 99.9394 64.2344 97.6534 67.9872C95.3673 71.74 91.9082 74.767 87.7291 76.6715C83.5501 78.576 78.8461 79.2692 74.2335 78.6603C69.6209 78.0514 65.3149 76.1688 61.8797 73.2591C58.4445 70.3494 56.0403 66.5484 54.9822 62.3542C53.924 58.1599 54.2613 53.768 55.9498 49.754C57.6383 45.7399 60.5993 42.291 64.4447 39.859C68.2902 37.4271 72.8407 36.1255 77.5001 36.125Z" fill="#F97E15"/>
</svg>
